<svg width="110" height="150" viewBox="0 0 110 150" fill="none" xmlns="http://www.w3.org/2000/svg">
<g clip-path="url(#clip0_5_790)">
<path d="M15.2243 92.4667C15.1349 91.2236 16.022 90.1475 17.3544 89.9005C24.0129 88.7409 43.6288 86.3399 54.0144 91.474C65.11 96.94 81.8858 92.4667 89.3419 90.1492C91.1179 89.5702 92.892 90.895 92.6255 92.6336L86.7665 146.708C86.6771 147.95 85.5235 148.779 84.2805 148.779H24.5458C23.2134 148.779 22.2387 147.868 22.0599 146.708L15.2243 92.4667Z" fill="#9C8220"/>
<path d="M42.3985 135.916C42.0207 135.916 41.548 135.916 41.2651 135.829C38.7152 135.3 37.2021 132.921 37.7697 130.452L67.815 15.5127C68.1928 14.0142 69.3263 12.8682 70.8376 12.3387L100.881 2.99696C101.354 2.90842 101.92 2.81987 102.392 2.81987C104.376 2.81987 106.266 4.05442 106.833 5.90539C107.211 6.96454 107.211 8.19738 106.643 9.25484C106.076 10.3123 105.132 11.1058 103.999 11.4583L76.4101 19.9213L46.9324 132.568C46.4615 134.506 44.4775 135.916 42.3985 135.916Z" fill="#9C8220"/>
<path d="M102.394 5.20042C103.245 5.20042 103.906 5.64145 104.188 6.43497C104.566 7.31533 103.999 8.37278 103.055 8.72697L74.05 17.8047L44.1946 131.862C44.0066 132.655 43.2509 133.183 42.3054 133.183H41.8327C40.7923 133.006 40.2265 131.948 40.4163 130.979L70.4598 16.0423C70.5547 15.5144 71.0274 14.9848 71.7831 14.7192L101.827 5.37581C101.921 5.37581 102.109 5.20042 102.394 5.20042ZM102.394 0C101.544 0 100.788 0.0885468 99.9374 0.352484L69.894 9.69588C67.4372 10.4894 65.5481 12.3404 64.9804 14.7192L35.03 129.835C34.0864 133.626 36.5413 137.505 40.6043 138.385C41.1701 138.474 41.7378 138.562 42.3985 138.562C45.8939 138.562 48.9183 136.359 49.7689 133.186L78.7738 21.9494L104.851 13.752C106.74 13.1356 108.346 11.901 109.197 10.1386C110.142 8.37449 110.237 6.52352 109.575 4.76109C108.441 1.93952 105.702 0 102.394 0Z" fill="#02254A"/>
<path d="M41.9258 133.185H42.3985C43.2491 133.185 44.0047 132.655 44.2877 131.863L55.1533 90.0828C54.7755 89.9959 54.4926 89.7303 54.1129 89.6417C53.2642 89.2892 52.5067 88.8482 51.6562 88.6728L40.5076 131.07C40.3196 131.95 40.8872 133.008 41.9258 133.185Z" fill="#9C8220"/>
<path d="M22.6531 150C22.4286 150 22.1767 149.932 21.881 149.794C21.1272 149.508 20.6417 148.931 20.5942 148.299L13.317 90.7128C13.3097 90.6004 13.3443 90.437 13.3845 90.2479L13.4046 90.1509L13.4009 90.0095L11.7345 76.8382L11.1705 76.8007C5.01029 76.4006 0 71.4062 0 65.666C0 59.609 5.48485 54.492 11.9772 54.492H14.8921L15.0071 53.9863C19.2125 35.446 35.2545 22.496 54.0199 22.496C72.6063 22.496 88.8929 35.7355 92.7478 53.9778L92.8573 54.492H94.3632C100.856 54.492 106.34 59.609 106.34 65.666C106.34 70.9686 102.089 75.6922 96.4512 76.6526L95.9457 76.7394L88.4877 145.988C88.4567 146.284 88.3855 146.594 88.2687 146.935L88.1081 148.278C87.962 149.227 87.1535 149.908 86.1423 149.908H84.8117C84.3937 149.971 84.0907 149.997 83.7804 149.997H22.6531V150ZM34.6522 94.4692C30.9269 94.4692 27.2801 94.7502 24.0603 94.9971L22.1803 95.1402L28.0923 142.283H80.8107L85.5016 98.4351L84.5799 98.6258C78.3357 99.9217 72.9129 100.55 68.0049 100.55C61.0251 100.55 54.9014 99.3001 49.8017 96.8328C48.1079 95.9541 43.8642 94.4692 34.6522 94.4692ZM34.6522 86.9308C42.9753 86.9308 49.287 88.0002 53.4084 90.1117C57.4513 92.0393 62.2918 93.0116 67.815 93.0116C73.2415 93.0116 79.3451 92.1364 85.9579 90.4097L86.4069 90.2922L87.8434 76.9284H19.9006L21.2568 87.7669L21.9376 87.6903C26.362 87.1863 30.6403 86.9308 34.6522 86.9308ZM12.1652 61.9436C10.0699 61.9436 8.36326 63.534 8.36326 65.4906C8.36326 67.4795 10.0334 69.0376 12.1652 69.0376H94.5512C96.6119 69.0376 98.3531 67.4131 98.3531 65.4906C98.3531 63.5017 96.683 61.9436 94.5512 61.9436H93.6057C89.4934 61.9436 85.8794 59.1901 85.0161 55.398C81.7325 40.7026 68.6948 30.0361 54.0199 30.0361C39.2062 30.0361 26.2086 40.7077 23.1167 55.4082C22.3373 59.197 18.727 61.9453 14.5271 61.9453H12.1652V61.9436Z" fill="#02254A"/>
<path d="M64.2229 109.475C64.2229 111.08 65.6193 112.383 67.3405 112.383C69.0635 112.383 70.4598 111.08 70.4598 109.475C70.4598 107.869 69.0635 106.566 67.3405 106.566C65.6193 106.564 64.2229 107.867 64.2229 109.475Z" fill="#F7D5A4"/>
<path d="M70.4598 122.079C70.4598 123.685 71.8561 124.987 73.5773 124.987C75.2985 124.987 76.6948 123.685 76.6948 122.079C76.6948 120.473 75.2985 119.169 73.5773 119.169C71.8561 119.169 70.4598 120.471 70.4598 122.079Z" fill="#F7D5A4"/>
<path d="M33.5169 122.167C33.5169 123.335 34.5317 124.282 35.7857 124.282C37.0378 124.282 38.0545 123.335 38.0545 122.167C38.0545 120.999 37.0396 120.051 35.7857 120.051C34.5336 120.051 33.5169 120.998 33.5169 122.167Z" fill="#9C8220"/>
<path d="M34.2726 109.475C34.2726 110.254 34.9497 110.884 35.7838 110.884C36.6198 110.884 37.2952 110.253 37.2952 109.475C37.2952 108.696 36.618 108.065 35.7838 108.065C34.9497 108.063 34.2726 108.695 34.2726 109.475Z" fill="#F7D5A4"/>
<path d="M65.8292 133.008C65.8292 133.542 66.2946 133.978 66.8677 133.978C67.4427 133.978 67.9081 133.544 67.9081 133.008C67.9081 132.473 67.4427 132.039 66.8677 132.039C66.2946 132.039 65.8292 132.473 65.8292 133.008Z" fill="#F7D5A4"/>
</g>
<defs>
<clipPath id="clip0_5_790">
<rect width="110" height="150" fill="white"/>
</clipPath>
</defs>
</svg>
