<svg width="10" height="9" viewBox="0 0 10 9" fill="none" xmlns="http://www.w3.org/2000/svg">
<path d="M10 4.5C10 2.01472 7.76142 0 5 0C2.23858 0 0 2.01472 0 4.5C0 6.98528 2.23858 9 5 9C7.76142 9 10 6.98528 10 4.5Z" fill="#10273E"/>
<path fill-rule="evenodd" clip-rule="evenodd" d="M7.44685 4.55114C7.44685 4.39159 7.43094 4.23818 7.4014 4.09091H5.04684V4.96125H6.3923C6.33435 5.24251 6.15821 5.4808 5.89344 5.64035V6.20489H6.70139C7.17412 5.81319 7.44685 5.23637 7.44685 4.55114Z" fill="#4285F4"/>
<path fill-rule="evenodd" clip-rule="evenodd" d="M5.04675 6.74999C5.72175 6.74999 6.28766 6.54852 6.7013 6.20488L5.89334 5.64033C5.66948 5.77533 5.38311 5.85511 5.04675 5.85511C4.39561 5.85511 3.84447 5.45931 3.64788 4.92749H2.81265V5.51045C3.22402 6.24579 4.06947 6.74999 5.04675 6.74999Z" fill="#34A853"/>
<path fill-rule="evenodd" clip-rule="evenodd" d="M3.64798 4.92749C3.59798 4.79249 3.56957 4.64828 3.56957 4.49999C3.56957 4.35169 3.59798 4.20749 3.64798 4.07249V3.48953H2.81275C2.64344 3.79328 2.54684 4.13692 2.54684 4.49999C2.54684 4.86306 2.64344 5.2067 2.81275 5.51045L3.64798 4.92749Z" fill="#FBBC05"/>
<path fill-rule="evenodd" clip-rule="evenodd" d="M5.04675 3.14489C5.41379 3.14489 5.74334 3.25841 6.00243 3.48137L6.71948 2.83602C6.28652 2.47296 5.72061 2.25 5.04675 2.25C4.06947 2.25 3.22402 2.75421 2.81265 3.48955L3.64788 4.0725C3.84447 3.54068 4.39561 3.14489 5.04675 3.14489Z" fill="#EA4335"/>
</svg>
