<svg width="11" height="10" viewBox="0 0 11 10" fill="none" xmlns="http://www.w3.org/2000/svg">
<path d="M5.5 8.33335L5.31269 8.79694C5.43285 8.84549 5.56715 8.84549 5.68731 8.79694L5.5 8.33335ZM4.93165 2.24198L5.27464 1.87817V1.87817L4.93165 2.24198ZM6.06835 2.24198L5.72536 1.87817V1.87817L6.06835 2.24198ZM5.17007 2.46675L4.82708 2.83057L4.82708 2.83057L5.17007 2.46675ZM5.82993 2.46675L5.48694 2.10294V2.10294L5.82993 2.46675ZM4.58867 2.6058L4.82708 2.83057L5.51306 2.10294L5.27464 1.87817L4.58867 2.6058ZM6.17292 2.83057L6.41133 2.6058L5.72536 1.87817L5.48694 2.10294L6.17292 2.83057ZM7.54156 1.16669C6.86559 1.16669 6.2118 1.41957 5.72536 1.87817L6.41133 2.6058C6.70633 2.32768 7.11241 2.16669 7.54156 2.16669V1.16669ZM10.125 4.04754C10.125 3.17238 9.85952 2.4463 9.37938 1.93465C8.89854 1.42226 8.24082 1.16669 7.54156 1.16669V2.16669C7.99295 2.16669 8.37695 2.32778 8.65017 2.61894C8.92409 2.91083 9.125 3.37518 9.125 4.04754H10.125ZM3.45844 2.16669C3.88759 2.16669 4.29367 2.32768 4.58867 2.6058L5.27464 1.87817C4.7882 1.41957 4.13441 1.16669 3.45844 1.16669V2.16669ZM1.875 4.04754C1.875 3.37282 2.07326 2.90876 2.3447 2.61796C2.61474 2.32865 2.99762 2.16669 3.45844 2.16669V1.16669C2.75249 1.16669 2.09364 1.42139 1.61366 1.93562C1.13507 2.44837 0.875 3.17474 0.875 4.04754H1.875ZM5.5 8.33335C5.68731 7.86976 5.68742 7.86981 5.68751 7.86984C5.68752 7.86985 5.6876 7.86988 5.68762 7.86989C5.68766 7.8699 5.68764 7.8699 5.68755 7.86986C5.68739 7.86979 5.68698 7.86963 5.68632 7.86936C5.68502 7.86883 5.68274 7.86789 5.67954 7.86656C5.67312 7.8639 5.66297 7.85966 5.64932 7.85386C5.62204 7.84226 5.58083 7.82443 5.52771 7.80056C5.42138 7.75278 5.26772 7.68097 5.08258 7.58657C4.71105 7.39714 4.21898 7.11991 3.73006 6.76715C2.71528 6.03498 1.875 5.09467 1.875 4.04754H0.875C0.875 5.61956 2.09722 6.82215 3.14494 7.5781C3.68727 7.9694 4.22645 8.27254 4.62835 8.47745C4.82993 8.58023 4.99854 8.65909 5.1178 8.71269C5.17747 8.7395 5.22489 8.76004 5.25802 8.77413C5.2746 8.78117 5.28761 8.78661 5.2968 8.79042C5.3014 8.79233 5.30504 8.79382 5.3077 8.79491C5.30903 8.79545 5.31011 8.7959 5.31094 8.79623C5.31136 8.7964 5.31172 8.79655 5.31201 8.79667C5.31215 8.79672 5.31232 8.79679 5.3124 8.79682C5.31255 8.79689 5.31269 8.79694 5.5 8.33335ZM9.125 4.04754C9.125 5.09467 8.28472 6.03498 7.26994 6.76715C6.78102 7.11991 6.28895 7.39714 5.91742 7.58657C5.73228 7.68097 5.57862 7.75278 5.47229 7.80056C5.41917 7.82443 5.37796 7.84226 5.35068 7.85386C5.33703 7.85966 5.32688 7.8639 5.32046 7.86656C5.31726 7.86789 5.31498 7.86883 5.31368 7.86936C5.31302 7.86963 5.31261 7.86979 5.31245 7.86986C5.31236 7.8699 5.31234 7.8699 5.31238 7.86989C5.3124 7.86988 5.31248 7.86985 5.31249 7.86984C5.31258 7.86981 5.31269 7.86976 5.5 8.33335C5.68731 8.79694 5.68745 8.79689 5.6876 8.79682C5.68768 8.79679 5.68785 8.79672 5.68799 8.79667C5.68828 8.79655 5.68864 8.7964 5.68906 8.79623C5.68989 8.7959 5.69097 8.79545 5.6923 8.79491C5.69496 8.79382 5.6986 8.79233 5.7032 8.79042C5.7124 8.78661 5.7254 8.78117 5.74198 8.77413C5.77511 8.76004 5.82253 8.7395 5.8822 8.71269C6.00146 8.65909 6.17007 8.58023 6.37165 8.47745C6.77355 8.27254 7.31273 7.9694 7.85506 7.5781C8.90278 6.82215 10.125 5.61956 10.125 4.04754H9.125ZM4.82708 2.83057C5.19993 3.18207 5.80007 3.18207 6.17292 2.83057L5.48694 2.10294C5.49244 2.09775 5.49727 2.09542 5.49944 2.0946C5.50129 2.0939 5.50133 2.0942 5.5 2.0942C5.49866 2.0942 5.49871 2.0939 5.50056 2.0946C5.50273 2.09542 5.50756 2.09775 5.51306 2.10294L4.82708 2.83057Z" fill="#EEEEEE"/>
</svg>
