<svg width="11" height="8" viewBox="0 0 11 8" fill="none" xmlns="http://www.w3.org/2000/svg">
<path d="M5.5 7.33335L5.31269 7.79694C5.43285 7.84549 5.56715 7.84549 5.68731 7.79694L5.5 7.33335ZM4.93165 1.24198L5.27464 0.878172L5.27464 0.878172L4.93165 1.24198ZM6.06835 1.24198L5.72536 0.878171L5.72536 0.878171L6.06835 1.24198ZM5.17007 1.46675L4.82708 1.83057L4.82708 1.83057L5.17007 1.46675ZM5.82993 1.46675L5.48694 1.10294L5.48694 1.10294L5.82993 1.46675ZM4.58867 1.6058L4.82708 1.83057L5.51306 1.10294L5.27464 0.878172L4.58867 1.6058ZM6.17292 1.83057L6.41133 1.6058L5.72536 0.878171L5.48694 1.10294L6.17292 1.83057ZM7.54156 0.166687C6.86559 0.166687 6.2118 0.419571 5.72536 0.878171L6.41133 1.6058C6.70633 1.32768 7.11241 1.16669 7.54156 1.16669V0.166687ZM10.125 3.04754C10.125 2.17238 9.85952 1.4463 9.37938 0.934646C8.89854 0.422256 8.24082 0.166687 7.54156 0.166687V1.16669C7.99295 1.16669 8.37695 1.32778 8.65017 1.61894C8.92409 1.91083 9.125 2.37518 9.125 3.04754H10.125ZM3.45844 1.16669C3.88759 1.16669 4.29367 1.32768 4.58867 1.6058L5.27464 0.878172C4.7882 0.419571 4.13441 0.166687 3.45844 0.166687V1.16669ZM1.875 3.04754C1.875 2.37282 2.07326 1.90876 2.3447 1.61796C2.61474 1.32865 2.99762 1.16669 3.45844 1.16669V0.166687C2.75249 0.166687 2.09364 0.421393 1.61366 0.935622C1.13507 1.44837 0.875 2.17474 0.875 3.04754H1.875ZM5.5 7.33335C5.68731 6.86976 5.68742 6.86981 5.68751 6.86984C5.68752 6.86985 5.6876 6.86988 5.68762 6.86989C5.68766 6.8699 5.68764 6.8699 5.68755 6.86986C5.68739 6.86979 5.68698 6.86963 5.68632 6.86936C5.68502 6.86883 5.68274 6.86789 5.67954 6.86656C5.67312 6.86391 5.66297 6.85966 5.64932 6.85386C5.62204 6.84226 5.58083 6.82443 5.52771 6.80056C5.42138 6.75278 5.26772 6.68097 5.08258 6.58657C4.71105 6.39714 4.21898 6.11991 3.73006 5.76715C2.71528 5.03498 1.875 4.09467 1.875 3.04754H0.875C0.875 4.61956 2.09722 5.82216 3.14494 6.5781C3.68727 6.9694 4.22645 7.27254 4.62835 7.47745C4.82993 7.58023 4.99854 7.65909 5.1178 7.71269C5.17747 7.7395 5.22489 7.76004 5.25802 7.77413C5.2746 7.78117 5.28761 7.78661 5.2968 7.79042C5.3014 7.79233 5.30504 7.79382 5.3077 7.79491C5.30903 7.79545 5.31011 7.7959 5.31094 7.79623C5.31136 7.7964 5.31172 7.79655 5.31201 7.79667C5.31215 7.79672 5.31232 7.79679 5.3124 7.79682C5.31255 7.79689 5.31269 7.79694 5.5 7.33335ZM9.125 3.04754C9.125 4.09467 8.28472 5.03498 7.26994 5.76715C6.78102 6.11991 6.28895 6.39714 5.91742 6.58657C5.73228 6.68097 5.57862 6.75278 5.47229 6.80056C5.41917 6.82443 5.37796 6.84226 5.35068 6.85386C5.33703 6.85966 5.32688 6.86391 5.32046 6.86656C5.31726 6.86789 5.31498 6.86883 5.31368 6.86936C5.31302 6.86963 5.31261 6.86979 5.31245 6.86986C5.31236 6.8699 5.31234 6.8699 5.31238 6.86989C5.3124 6.86988 5.31248 6.86985 5.31249 6.86984C5.31258 6.86981 5.31269 6.86976 5.5 7.33335C5.68731 7.79694 5.68745 7.79689 5.6876 7.79682C5.68768 7.79679 5.68785 7.79672 5.68799 7.79667C5.68828 7.79655 5.68864 7.7964 5.68906 7.79623C5.68989 7.7959 5.69097 7.79545 5.6923 7.79491C5.69496 7.79382 5.6986 7.79233 5.7032 7.79042C5.7124 7.78661 5.7254 7.78117 5.74198 7.77413C5.77511 7.76004 5.82253 7.7395 5.8822 7.71269C6.00146 7.65909 6.17007 7.58023 6.37165 7.47745C6.77355 7.27254 7.31273 6.9694 7.85506 6.5781C8.90278 5.82216 10.125 4.61956 10.125 3.04754H9.125ZM4.82708 1.83057C5.19993 2.18207 5.80007 2.18207 6.17292 1.83057L5.48694 1.10294C5.49244 1.09775 5.49727 1.09542 5.49944 1.0946C5.50129 1.0939 5.50133 1.0942 5.5 1.0942C5.49867 1.0942 5.49871 1.0939 5.50056 1.0946C5.50273 1.09542 5.50756 1.09775 5.51306 1.10294L4.82708 1.83057Z" fill="#02254A"/>
</svg>
